<?xml version="1.0" encoding="UTF-8" standalone="no"?><!DOCTYPE svg PUBLIC "-//W3C//DTD SVG 1.1//EN" "http://www.w3.org/Graphics/SVG/1.1/DTD/svg11.dtd"><svg width="100%" height="100%" viewBox="0 0 32 32" version="1.1" xmlns="http://www.w3.org/2000/svg" xmlns:xlink="http://www.w3.org/1999/xlink" xml:space="preserve" xmlns:serif="http://www.serif.com/" style="fill-rule:evenodd;clip-rule:evenodd;stroke-linejoin:round;stroke-miterlimit:2;"><path d="M32,8l0,16c0,4.415 -3.585,8 -8,8l-16,0c-4.415,0 -8,-3.585 -8,-8l0,-16c0,-4.415 3.585,-8 8,-8l16,0c4.415,0 8,3.585 8,8Z"/><path d="M16,6c-3.866,0 -7,3.134 -7,7c0,5.25 7,13 7,13c0,0 7,-7.75 7,-13c0,-3.866 -3.134,-7 -7,-7Z" style="fill:#ff3e00;fill-rule:nonzero;"/><circle cx="16" cy="13" r="3"/></svg>
